HIERARCHY
ROOT Hips
{
	OFFSET	0.000000	0.000000	0.000000
	CHANNELS 6 Xposition Yposition Zposition Zrotation Xrotation Yrotation
	JOINT LeftHip
	{
		OFFSET	5.000000	0.000000	0.000000
		CHANNELS 3 Zrotation Xrotation Yrotation
		JOINT LeftKnee
		{
			OFFSET	0.000000	-15.500000	0.000000
			CHANNELS 3 Zrotation Xrotation Yrotation
			JOINT LeftAnkle
			{
				OFFSET	0.000000	-15.500000	0.000000
				CHANNELS 3 Zrotation Xrotation Yrotation
				End Site
				{
					OFFSET	0.000000	-4.000000	-2.500000
				}
			}
		}
	}
	JOINT RightHip
	{
		OFFSET	-4.500000	0.000000	0.000000
		CHANNELS 3 Zrotation Xrotation Yrotation
		JOINT RightKnee
		{
			OFFSET	0.000000	-15.500000	0.000000
			CHANNELS 3 Zrotation Xrotation Yrotation
			JOINT RightAnkle
			{
				OFFSET	0.000000	-15.500000	0.000000
				CHANNELS 3 Zrotation Xrotation Yrotation
				End Site
				{
					OFFSET	0.000000	-4.000000	-2.500000
				}
			}
		}
	}
	JOINT Chest
	{
		OFFSET	0.000000	3.000000	-1.000000
		CHANNELS 3 Zrotation Xrotation Yrotation
		JOINT LeftCollar
		{
			OFFSET	0.000000	13.000000	1.000000
			CHANNELS 3 Zrotation Xrotation Yrotation
			JOINT LeftShoulder
			{
				OFFSET	6.500000	0.000000	0.000000
				CHANNELS 3 Zrotation Xrotation Yrotation
				JOINT LeftElbow
				{
					OFFSET	0.000000	-9.000000	0.000000
					CHANNELS 3 Zrotation Xrotation Yrotation
					JOINT LeftWrist
					{
						OFFSET	0.000000	-10.500000	0.000000
						CHANNELS 3 Zrotation Xrotation Yrotation
						End Site
						{
							OFFSET	0.000000	-5.000000	0.000000
						}
					}
				}
			}
		}
		JOINT RightCollar
		{
			OFFSET	0.000000	13.000000	1.000000
			CHANNELS 3 Zrotation Xrotation Yrotation
			JOINT RightShoulder
			{
				OFFSET	-6.500000	0.000000	0.000000
				CHANNELS 3 Zrotation Xrotation Yrotation
				JOINT RightElbow
				{
					OFFSET	0.000000	-9.000000	0.000000
					CHANNELS 3 Zrotation Xrotation Yrotation
					JOINT RightWrist
					{
						OFFSET	0.000000	-10.500000	0.000000
						CHANNELS 3 Zrotation Xrotation Yrotation
						End Site
						{
							OFFSET	0.000000	-5.000000	0.000000
						}
					}
				}
			}
		}
		JOINT Neck
		{
			OFFSET	0.000000	13.000000	1.000000
			CHANNELS 3 Zrotation Xrotation Yrotation
			JOINT Head
			{
				OFFSET	0.000000	5.000000	0.000000
				CHANNELS 3 Zrotation Xrotation Yrotation
				End Site
				{
					OFFSET	0.000000	7.000000	0.000000
				}
			}
		}
	}
}
MOTION
Frames:     13
Frame Time: 0.016667
24.044104	32.737087	57.008266	-178.737274	-174.305878	-27.266684	10.545312	-36.252949	10.088411	2.000000	48.059017	0.000000	-4.111225	-7.872421	-9.932736	5.196623	-1.065001	1.301247	-2.000000	27.622459	0.000000	-12.740299	-22.943821	-4.384016	19.901890	7.412445	40.031464	-17.946259	-10.359019	-3.333097	14.136101	44.177139	27.509661	-56.108894	-85.262276	-56.756447	18.950176	-16.157814	-21.327789	-17.946259	-10.359019	-3.333097	-53.630482	-32.421341	11.268562	-50.130737	-95.197426	-49.689644	-12.184168	8.328468	12.564938	-40.298737	41.018787	11.668610	77.514915	-44.871620	-9.667658	
24.037420	32.759354	56.978676	-178.830780	-174.487900	-28.969120	11.693718	-35.243679	10.582715	2.000000	48.820675	0.000000	-4.471979	-8.390361	-8.732619	4.641968	-1.578322	1.313579	-2.000000	28.507746	0.000000	-12.435867	-22.765755	-2.616560	18.942619	7.395620	37.566349	-16.832155	-10.962419	-3.292636	19.043043	43.629250	23.235748	75.084145	-94.109520	74.564453	19.159122	-15.309707	-20.195473	-16.832155	-10.962419	-3.292636	-53.233578	-28.422445	14.604143	-24.075842	-99.844147	-23.830793	-12.677563	8.809784	11.578243	-38.326752	39.409981	10.992845	74.674255	-45.739063	-9.034492	
24.109724	32.784428	56.943680	-179.063568	-174.604645	-31.005600	12.656430	-34.446236	11.306005	2.000000	49.608467	0.000000	-4.477167	-8.893665	-8.175776	3.927914	-2.195588	0.749462	-2.000000	29.363588	0.000000	-11.796662	-22.693521	-0.519690	18.063309	7.380900	34.943871	-15.724392	-11.723083	-3.274047	24.567827	42.213299	18.237333	42.163887	-95.953316	41.760193	19.203060	-14.858530	-19.415802	-15.724392	-11.723083	-3.274047	-52.623440	-24.370886	18.405769	-16.409470	-104.224648	-16.326956	-12.975222	8.995035	11.341824	-36.707256	38.044750	10.450992	71.494545	-46.375504	-8.182052	
24.106928	32.813152	56.898167	-179.304596	-174.631531	-32.702133	13.524258	-33.753998	13.347992	2.000000	50.670341	0.000000	-4.043166	-9.431630	-8.015532	3.215346	-2.913675	0.494339	-2.000000	30.168413	0.000000	-10.927562	-22.460712	1.411402	17.106617	7.204503	32.316788	-14.196995	-12.431162	-3.117179	29.699408	39.896481	14.073236	29.097822	-98.246361	28.790884	19.070827	-14.609085	-19.174728	-14.196995	-12.431162	-3.117179	-52.121971	-20.865845	21.839096	-13.252729	-107.488571	-13.289044	-13.177353	8.784310	11.379831	-35.224319	36.855289	9.972036	68.401222	-47.103745	-7.596402	
24.082783	32.827202	56.933353	-179.569366	-174.611893	-34.715786	14.128144	-33.287395	14.874892	2.000000	51.488731	0.000000	-3.824709	-9.950866	-7.129200	2.670800	-4.031503	0.477709	-2.000000	31.304054	0.000000	-10.649752	-22.255199	2.660328	16.307156	7.192380	29.617392	-12.989712	-13.043635	-2.980280	34.985840	37.032433	10.183548	22.630121	-100.440491	22.407642	19.063368	-14.337566	-18.875729	-12.989712	-13.043635	-2.980280	-51.776978	-17.421658	25.246735	-11.622817	-109.838364	-11.744505	-13.011333	8.810174	11.349030	-33.700611	35.536106	9.483851	65.242912	-47.576679	-6.527835	
23.967144	32.805283	56.834740	-179.845322	-174.477509	-36.779625	14.475636	-33.047855	15.579626	2.000000	52.591743	0.000000	-3.748804	-10.443292	-6.241986	2.045847	-5.251277	0.432234	-2.000000	32.553902	0.000000	-10.342423	-21.886724	2.659705	15.271287	6.935792	26.663416	-11.111593	-13.607390	-2.645589	39.911739	33.467350	6.847208	19.249022	-102.192253	19.091852	19.326153	-14.091951	-18.541685	-11.111593	-13.607390	-2.645589	-51.376133	-13.702378	29.071909	-10.708905	-111.448441	-10.889188	-12.642686	9.046254	11.279860	-31.896191	34.128201	8.928686	61.475571	-48.552494	-5.963346	
24.006285	32.676575	56.544495	179.872681	-174.292923	-38.565517	14.760831	-33.012516	15.896215	2.000000	53.381069	0.000000	-4.060531	-11.225722	-5.199377	1.335717	-6.370996	-0.615036	-2.000000	34.390549	0.000000	-10.749284	-21.877104	2.648960	14.391721	6.923920	23.959558	-9.630622	-13.908185	-2.335636	44.186256	29.853886	4.168807	17.324806	-103.497032	17.215656	19.597513	-13.649860	-17.987371	-9.630622	-13.908185	-2.335636	-50.868362	-10.643588	29.549021	-10.322356	-112.208412	-10.530346	-12.642686	9.046254	11.279860	-30.013128	32.612442	8.358838	57.645935	-49.301846	-5.313873	
23.972956	32.595585	56.485996	179.535110	-174.079254	-40.420116	14.812675	-33.301674	16.000637	2.000000	54.190575	0.000000	-3.866623	-11.898599	-3.818871	0.627860	-7.892001	-1.942220	-2.000000	36.069378	0.000000	-10.854040	-21.878155	2.810564	13.432207	6.911755	21.170828	-8.309260	-14.116571	-2.040057	48.337315	26.123079	3.694722	16.186546	-104.414200	16.110958	19.959866	-13.304127	-17.524134	-8.309260	-14.116571	-2.040057	-50.342590	-7.537537	29.877581	-10.093275	-112.683838	-10.318620	-12.642686	9.046254	11.279860	-27.961391	31.082047	7.755601	53.128273	-49.874062	-4.699915	
24.253931	32.490810	56.382320	179.063614	-173.838135	-42.821392	14.812675	-33.301674	16.000637	2.000000	54.635094	0.000000	-3.743963	-12.459479	-2.593618	0.075816	-9.308327	-3.600142	-2.000000	37.901062	0.000000	-11.030246	-21.611450	2.800432	12.552667	6.901327	18.708309	-6.662815	-14.648371	-1.692078	52.277786	21.987743	2.359247	15.441719	-105.086578	15.390663	20.222288	-12.784081	-17.378239	-6.662815	-14.648371	-1.692078	-49.986877	-4.222041	30.060299	-9.916466	-113.064392	-10.155713	-12.642686	9.046254	11.279860	-25.342695	30.006271	7.028084	47.983631	-50.279392	-4.628798	
24.140066	32.527786	56.584778	178.608322	-173.692749	-45.022831	15.193717	-33.252964	16.209715	2.000000	55.056007	0.000000	-3.684430	-13.030314	-2.187035	-0.562247	-10.924686	-5.149818	-2.000000	38.666641	0.000000	-11.294692	-21.201557	2.788013	11.433265	6.889061	16.474857	-5.340765	-15.083732	-1.393594	56.126518	17.802559	1.936063	15.164253	-105.353645	15.122929	20.046120	-12.163936	-17.303131	-5.340765	-15.083732	-1.393594	-49.165165	-1.339458	29.784027	-9.986047	-112.913177	-10.219768	-12.422808	9.090953	11.885154	-22.856813	29.064047	6.340109	43.228233	-50.611820	-3.830040	
24.020250	32.581337	56.768158	177.926285	-173.573380	-47.924210	15.479222	-33.215672	16.366190	2.000000	55.643044	0.000000	-3.690833	-13.197114	-2.188851	-1.291162	-12.739408	-6.605892	-2.000000	39.295673	0.000000	-11.946809	-20.605511	2.600188	10.231625	7.118862	14.317839	-4.180825	-15.509934	-1.119821	59.464733	13.364800	1.833111	15.057430	-105.459030	15.019945	19.931568	-11.375535	-17.224556	-4.180825	-15.509934	-1.119821	-48.206806	1.688228	29.581863	-10.114894	-112.638138	-10.338568	-12.022606	8.756124	12.751617	-20.218094	28.341822	5.615489	38.036098	-50.352386	-3.019414	
23.869749	32.651085	56.911770	177.268997	-173.529800	-50.406475	15.822774	-32.973267	16.661734	2.000000	55.843281	0.000000	-3.697247	-13.363851	-2.190684	-2.117057	-14.247958	-8.189578	-2.000000	39.571922	0.000000	-11.974480	-20.007915	2.590585	9.112503	7.108944	12.164470	-3.096419	-15.688643	-0.838058	62.446438	9.324512	2.621789	15.385818	-105.139633	15.336697	19.791336	-10.707973	-17.291346	-3.096419	-15.688643	-0.838058	-46.870716	4.134936	29.159515	-10.414213	-112.023140	-10.615444	-11.620866	8.561935	13.933360	-17.400864	27.824203	4.842960	33.201759	-50.295956	-1.952928	
23.825832	32.753017	57.127594	176.458954	-173.554855	-53.364014	16.107138	-32.934765	16.816420	2.000000	56.143505	0.000000	-3.949589	-13.613549	-2.197901	-2.705993	-15.751968	-9.589846	-2.000000	39.588940	0.000000	-12.283204	-19.265556	2.736137	7.992193	7.261294	10.413900	-1.928744	-16.104626	-0.535205	65.176521	5.417328	3.219990	16.111809	-104.478897	16.038582	19.450514	-10.198043	-17.481016	-1.928744	-16.104626	-0.535205	-45.731331	6.741905	28.987549	-10.933732	-111.029213	-11.098746	-10.756586	8.374122	15.278078	-14.541869	27.553015	4.057536	27.560148	-50.163727	-1.151379	
